<?xml version="1.0"?>
<!DOCTYPE svg PUBLIC "-//W3C//DTD SVG 1.1//EN" "http://www.w3.org/Graphics/SVG/1.1/DTD/svg11.dtd">
<!--Phoronix Test Suite v7.8.0 [ http://www.phoronix-test-suite.com/ ]-->
<svg xmlns="http://www.w3.org/2000/svg" xmlns:xlink="http://www.w3.org/1999/xlink" version="1.1" font-family="sans-serif, droid-sans, helvetica, verdana, tahoma" viewbox="0 0 327 442" width="327" height="442" preserveAspectRatio="xMinYMin meet"><rect x="0" y="0" width="327" height="442" fill="#FEFEFE" stroke="#757575" stroke-width="2"/><rect x="2" y="1" width="324" height="38" fill="#231f20" stroke="#757575" stroke-width="1"/><text x="163.5" y="19" font-size="17" fill="#FEFEFE" text-anchor="middle" font-weight="bold">nfs_test_5</text><a xlink:href="https://www.phoronix-test-suite.com/" xlink:show="new"><text x="4" y="36" font-size="8" fill="#FEFEFE" text-anchor="start" xlink:show="new" font-weight="bold">PHORONIX-TEST-SUITE.COM</text></a><a xlink:href="https://www.phoronix-test-suite.com/" xlink:show="new"><text x="323" y="36" font-size="8" fill="#FEFEFE" text-anchor="end" xlink:show="new" font-weight="bold">Phoronix Test Suite 7.8.0</text></a><g fill="#949494"><rect x="0" y="55" width="327" height="16"/><rect x="0" y="87" width="327" height="16"/><rect x="0" y="119" width="327" height="16"/><rect x="0" y="151" width="327" height="16"/><rect x="0" y="183" width="327" height="16"/><rect x="0" y="215" width="327" height="16"/></g><g fill="none" stroke-width="1" stroke="#005a00"/><g font-size="10" fill="#065695" text-anchor="middle" font-weight="bold"><a xlink:href="http://openbenchmarking.org/s/Intel Xeon E5-2620 v3 @ 2.39GHz (1 Core)" xlink:show="new"><text x="163.5" y="52" xlink:title="Processor: Intel Xeon E5-2620 v3 @ 2.39GHz (1 Core)">Intel Xeon E5-2620 v3 @ 2.39GHz (1 Core)</text></a><a xlink:href="http://openbenchmarking.org/s/Oracle VirtualBox v1.2" xlink:show="new"><text x="163.5" y="68" xlink:title="Motherboard: Oracle VirtualBox v1.2">Oracle VirtualBox v1.2</text></a><a xlink:href="http://openbenchmarking.org/s/Intel 440FX- 82441FX PMC" xlink:show="new"><text x="163.5" y="84" xlink:title="Chipset: Intel 440FX- 82441FX PMC">Intel 440FX- 82441FX PMC</text></a><a xlink:href="http://openbenchmarking.org/s/1024MB" xlink:show="new"><text x="163.5" y="100" xlink:title="Memory: 1024MB">1024MB</text></a><a xlink:href="http://openbenchmarking.org/s/17GB VBOX HDD" xlink:show="new"><text x="163.5" y="116" xlink:title="Disk: 17GB VBOX HDD">17GB VBOX HDD</text></a><a xlink:href="http://openbenchmarking.org/s/InnoTek VirtualBox" xlink:show="new"><text x="163.5" y="132" xlink:title="Graphics: InnoTek VirtualBox">InnoTek VirtualBox</text></a><a xlink:href="http://openbenchmarking.org/s/AMD 79c970" xlink:show="new"><text x="163.5" y="148" xlink:title="Network: AMD 79c970">AMD 79c970</text></a><a xlink:href="http://openbenchmarking.org/s/Debian 9.3" xlink:show="new"><text x="163.5" y="164" xlink:title="OS: Debian 9.3">Debian 9.3</text></a><a xlink:href="http://openbenchmarking.org/s/4.9.0-3-amd64 (x86_64)" xlink:show="new"><text x="163.5" y="180" xlink:title="Kernel: 4.9.0-3-amd64 (x86_64)">4.9.0-3-amd64 (x86_64)</text></a><a xlink:href="http://openbenchmarking.org/s/GCC 6.3.0 20170516" xlink:show="new"><text x="163.5" y="196" xlink:title="Compiler: GCC 6.3.0 20170516">GCC 6.3.0 20170516</text></a><a xlink:href="http://openbenchmarking.org/s/nfs" xlink:show="new"><text x="163.5" y="212" xlink:title="File-System: nfs">nfs</text></a><a xlink:href="http://openbenchmarking.org/s/Oracle VirtualBox" xlink:show="new"><text x="163.5" y="228" xlink:title="System Layer: Oracle VirtualBox">Oracle VirtualBox</text></a></g><g font-size="7" fill="#065695" text-anchor="end"><text x="323" y="48">Processor</text><text x="323" y="64">Motherboard</text><text x="323" y="80">Chipset</text><text x="323" y="96">Memory</text><text x="323" y="112">Disk</text><text x="323" y="128">Graphics</text><text x="323" y="144">Network</text><text x="323" y="160">OS</text><text x="323" y="176">Kernel</text><text x="323" y="192">Compiler</text><text x="323" y="208">File-System</text><text x="323" y="224">System Layer</text></g><g stroke="#757575" stroke-width="1"><line x1="0" y1="39" x2="327" y2="39"/><line x1="0" y1="55" x2="327" y2="55"/><line x1="0" y1="71" x2="327" y2="71"/><line x1="0" y1="87" x2="327" y2="87"/><line x1="0" y1="103" x2="327" y2="103"/><line x1="0" y1="119" x2="327" y2="119"/><line x1="0" y1="135" x2="327" y2="135"/><line x1="0" y1="151" x2="327" y2="151"/><line x1="0" y1="167" x2="327" y2="167"/><line x1="0" y1="183" x2="327" y2="183"/><line x1="0" y1="199" x2="327" y2="199"/><line x1="0" y1="215" x2="327" y2="215"/></g><rect x="1" y="231" width="325" height="211" fill="#231f20"/><text x="4" y="252" font-size="9" fill="#FEFEFE" text-anchor="start" xlink:title=""><tspan x="4" y="252" dx="0" dy="0">- --build=x86_64-linux-gnu --disable-browser-plugin</tspan><tspan x="4" y="252" dx="5" dy="10"> --disable-vtable-verify --enable-checking=release</tspan><tspan x="4" y="252" dx="5" dy="20"> --enable-clocale=gnu --enable-default-pie</tspan><tspan x="4" y="252" dx="5" dy="30"> --enable-gnu-unique-object --enable-gtk-cairo</tspan><tspan x="4" y="252" dx="5" dy="40"> --enable-java-awt=gtk --enable-java-home</tspan><tspan x="4" y="252" dx="5" dy="50"> --enable-languages=c,ada,c++,java,go,d,fortran,objc,obj-c++</tspan><tspan x="4" y="252" dx="5" dy="60"> --enable-libmpx --enable-libstdcxx-debug</tspan><tspan x="4" y="252" dx="5" dy="70"> --enable-libstdcxx-time=yes --enable-multiarch</tspan><tspan x="4" y="252" dx="5" dy="80"> --enable-multilib --enable-nls --enable-objc-gc=auto</tspan><tspan x="4" y="252" dx="5" dy="90"> --enable-plugin --enable-shared --enable-threads=posix</tspan><tspan x="4" y="252" dx="5" dy="100"> --host=x86_64-linux-gnu</tspan><tspan x="4" y="252" dx="5" dy="110"> --program-prefix=x86_64-linux-gnu-</tspan><tspan x="4" y="252" dx="5" dy="120"> --target=x86_64-linux-gnu --with-abi=m64</tspan><tspan x="4" y="252" dx="5" dy="130"> --with-arch-32=i686 --with-arch-directory=amd64</tspan><tspan x="4" y="252" dx="5" dy="140"> --with-default-libstdcxx-abi=new</tspan><tspan x="4" y="252" dx="5" dy="150"> --with-multilib-list=m32,m64,mx32</tspan><tspan x="4" y="252" dx="5" dy="160"> --with-target-system-zlib --with-tune=generic -v </tspan></text><text x="4" y="439" font-size="9" fill="#FEFEFE" text-anchor="start" width="323">- CFQ</text></svg>
