<?xml version="1.0"?>
<!DOCTYPE svg PUBLIC "-//W3C//DTD SVG 1.1//EN" "http://www.w3.org/Graphics/SVG/1.1/DTD/svg11.dtd">
<!--Phoronix Test Suite v7.8.0 [ http://www.phoronix-test-suite.com/ ]-->
<svg xmlns="http://www.w3.org/2000/svg" xmlns:xlink="http://www.w3.org/1999/xlink" version="1.1" font-family="sans-serif, droid-sans, helvetica, verdana, tahoma" viewbox="0 0 325 121" width="325" height="121" preserveAspectRatio="xMinYMin meet"><rect x="0" y="0" width="325" height="121" fill="#FEFEFE" stroke="#757575" stroke-width="2"/><rect x="1" y="1" width="324" height="120" fill="#FEFEFE" stroke="#757575" stroke-width="1"/><path d="m74 22v9m-5-16v16m-5-28v28m-23-2h12.5c2.485281 0 4.5-2.014719 4.5-4.5s-2.014719-4.5-4.5-4.5h-8c-2.485281 0-4.5-2.014719-4.5-4.5s2.014719-4.5 4.5-4.5h12.5m-21 5h-11m11 13h-2c-4.970563 0-9-4.029437-9-9v-20m-24 40v-20c0-4.970563 4.0294373-9 9-9 4.970563 0 9 4.029437 9 9s-4.029437 9-9 9h-9" stroke="#000000" stroke-width="4" fill="none" transform="translate(49,28)"/><line x1="177" y1="65" x2="325" y2="65" stroke="#BABABA" stroke-width="80" stroke-dasharray="148,148"/><line x1="163" y1="73" x2="163" y2="105" stroke="#949494" stroke-width="325" stroke-dasharray="16,16"/><line x1="177" y1="65" x2="325" y2="65" stroke="#757575" stroke-width="80" stroke-dasharray="1,147"/><rect x="1" y="1" width="323" height="25" fill="#231f20"/><text x="5" y="19" font-size="17" fill="#FEFEFE" text-anchor="start">dbench_init</text><line x1="1" y1="25" x2="324" y2="25" stroke="#757575" stroke-width="1"/><g font-size="10" font-weight="bold" fill="#065695" text-anchor="end"><a xlink:href="https://openbenchmarking.org/test/pts/dbench-1.0.0" xlink:show="new"><text x="175" y="85">dbench: Client Count: 1</text></a><text x="175" y="101">Standard Deviation</text></g><g font-size="10" fill="#065695" font-weight="bold" text-anchor="middle" dominant-baseline="text-before-edge"><text x="251" y="49">dbench_initial_test</text></g><g fill="#BABABA"/><g text-anchor="middle" font-size="10" fill="#065695"><text x="251" y="86" xlink:title="STD Dev: 0.21%">0.29</text><text x="251" y="102">0.21%</text></g><line x1="163" y1="73" x2="163" y2="105" stroke="#949494" stroke-width="325" stroke-dasharray="1,15"/><rect x="0" y="105" width="325" height="16" fill="#231f20"/><a xlink:href="https://www.phoronix-test-suite.com/" xlink:show="new"><text x="323" y="118" font-size="10" fill="#FFFFFF" text-anchor="end" xlink:show="new">PHORONIX-TEST-SUITE.COM</text></a></svg>
