<?xml version="1.0"?>
<!DOCTYPE svg PUBLIC "-//W3C//DTD SVG 1.1//EN" "http://www.w3.org/Graphics/SVG/1.1/DTD/svg11.dtd">
<!--Phoronix Test Suite v7.6.0 [ http://www.phoronix-test-suite.com/ ]-->
<svg xmlns="http://www.w3.org/2000/svg" xmlns:xlink="http://www.w3.org/1999/xlink" version="1.1" font-family="sans-serif, droid-sans, helvetica, verdana, tahoma" viewbox="0 0 671 185" width="671" height="185" preserveAspectRatio="xMinYMin meet"><rect x="0" y="0" width="671" height="185" fill="#FEFEFE" stroke="#757575" stroke-width="2"/><rect x="1" y="1" width="670" height="184" fill="#FEFEFE" stroke="#757575" stroke-width="1"/><path d="m74 22v9m-5-16v16m-5-28v28m-23-2h12.5c2.485281 0 4.5-2.014719 4.5-4.5s-2.014719-4.5-4.5-4.5h-8c-2.485281 0-4.5-2.014719-4.5-4.5s2.014719-4.5 4.5-4.5h12.5m-21 5h-11m11 13h-2c-4.970563 0-9-4.029437-9-9v-20m-24 40v-20c0-4.970563 4.0294373-9 9-9 4.970563 0 9 4.029437 9 9s-4.029437 9-9 9h-9" stroke="#000000" stroke-width="4" fill="none" transform="translate(229,28)"/><line x1="538" y1="97" x2="671" y2="97" stroke="#BABABA" stroke-width="144" stroke-dasharray="133,133"/><line x1="336" y1="73" x2="336" y2="169" stroke="#949494" stroke-width="671" stroke-dasharray="16,16"/><line x1="538" y1="97" x2="671" y2="97" stroke="#757575" stroke-width="144" stroke-dasharray="1,132"/><rect x="1" y="1" width="669" height="25" fill="#231f20"/><text x="5" y="19" font-size="17" fill="#FEFEFE" text-anchor="start">iozone_cache_init</text><line x1="1" y1="25" x2="670" y2="25" stroke="#757575" stroke-width="1"/><g font-size="10" font-weight="bold" fill="#065695" text-anchor="end"><a xlink:href="https://openbenchmarking.org/test/pts/iozone-1.9.0" xlink:show="new"><text x="536" y="85">iozone: Record Size: 1MB - File Size: 2GB - Disk Test: Read Performance</text></a><a xlink:href="https://openbenchmarking.org/test/pts/iozone-1.9.0" xlink:show="new"><text x="536" y="101">iozone: Record Size: 4Kb - File Size: 2GB - Disk Test: Read Performance</text></a><a xlink:href="https://openbenchmarking.org/test/pts/iozone-1.9.0" xlink:show="new"><text x="536" y="117">iozone: Record Size: 1MB - File Size: 2GB - Disk Test: Write Performance</text></a><a xlink:href="https://openbenchmarking.org/test/pts/iozone-1.9.0" xlink:show="new"><text x="536" y="133">iozone: Record Size: 4Kb - File Size: 2GB - Disk Test: Write Performance</text></a><a xlink:href="https://openbenchmarking.org/test/pts/iozone-1.9.0" xlink:show="new"><text x="536" y="149">iozone: Record Size: 64Kb - File Size: 2GB - Disk Test: Read Performance</text></a><a xlink:href="https://openbenchmarking.org/test/pts/iozone-1.9.0" xlink:show="new"><text x="536" y="165">iozone: Record Size: 64Kb - File Size: 2GB - Disk Test: Write Performance</text></a></g><g font-size="10" fill="#065695" font-weight="bold" text-anchor="middle" dominant-baseline="text-before-edge"><text x="605" y="49">iozone_cache_init</text></g><g fill="#BABABA"/><g text-anchor="middle" font-size="10" fill="#065695"><text x="605" y="86" xlink:title="STD Dev: 125.63%;  STD Error: 218.51">426.05</text><text x="605" y="102" xlink:title="STD Dev: 3.69%;  STD Error: 3.13">208.04</text><text x="605" y="118" xlink:title="STD Dev: 5.69%;  STD Error: 4.23">182.11</text><text x="605" y="134" xlink:title="STD Dev: 1.54%;  STD Error: 1.72">193.91</text><text x="605" y="150" xlink:title="STD Dev: 13.36%;  STD Error: 11.26">206.52</text><text x="605" y="166" xlink:title="STD Dev: 3.17%;  STD Error: 2.70">190.16</text></g><line x1="336" y1="73" x2="336" y2="169" stroke="#949494" stroke-width="671" stroke-dasharray="1,15"/><rect x="0" y="169" width="671" height="16" fill="#231f20"/><a xlink:href="https://www.phoronix-test-suite.com/" xlink:show="new"><text x="669" y="182" font-size="10" fill="#FFFFFF" text-anchor="end" xlink:show="new">PHORONIX-TEST-SUITE.COM</text></a></svg>
